inDegrees=no
num_controls=7
num_derivatives=13
num_iterations=109
num_multipliers=7
num_parameters=0
num_slacks=7
num_states=26
objective=5.447613
objective_accelerations=0.360860
objective_balance=0.051145
objective_effort=0.354284
objective_height=4.585091
objective_ligament=0.096233
solver_duration=1085.905586
status=Solve_Succeeded
success=true
DataType=double
version=3
OpenSimVersion=4.4-2022-07-23-0e9fedc
endheader
time	/jointset/ground_pelvis/pelvis_tilt/value	/jointset/ground_pelvis/pelvis_tx/value	/jointset/ground_pelvis/pelvis_ty/value	/jointset/hip_l/hip_flexion_l/value	/jointset/hip_l/hip_adduction_l/value	/jointset/hip_l/hip_rotation_l/value	/jointset/back/lumbar_extension/value	/jointset/patellofemoral_l/patellar_flexion_l/value	/jointset/knee_l/knee_flexion_l/value	/jointset/knee_l/knee_adduction_l/value	/jointset/knee_l/knee_rotation_l/value	/jointset/ankle_l/ankle_angle_l/value	/jointset/subtalar_l/subtalar_angle_l/value	/jointset/ground_pelvis/pelvis_tilt/speed	/jointset/ground_pelvis/pelvis_tx/speed	/jointset/ground_pelvis/pelvis_ty/speed	/jointset/hip_l/hip_flexion_l/speed	/jointset/hip_l/hip_adduction_l/speed	/jointset/hip_l/hip_rotation_l/speed	/jointset/back/lumbar_extension/speed	/jointset/patellofemoral_l/patellar_flexion_l/speed	/jointset/knee_l/knee_flexion_l/speed	/jointset/knee_l/knee_adduction_l/speed	/jointset/knee_l/knee_rotation_l/speed	/jointset/ankle_l/ankle_angle_l/speed	/jointset/subtalar_l/subtalar_angle_l/speed	/forceset/tau_hip_flexion_l	/forceset/tau_hip_adduction_l	/forceset/tau_hip_rotation_l	/forceset/tau_knee_flexion_l	/forceset/tau_ankle_angle_l	/forceset/tau_subtalar_angle_l	/forceset/tau_lumbar_extension	lambda_cid13_p0	lambda_cid13_p1	lambda_cid13_p2	lambda_cid13_p3	lambda_cid13_p4	lambda_cid13_p5	lambda_cid14_p0	/jointset/ground_pelvis/pelvis_tilt/accel	/jointset/ground_pelvis/pelvis_tx/accel	/jointset/ground_pelvis/pelvis_ty/accel	/jointset/hip_l/hip_flexion_l/accel	/jointset/hip_l/hip_adduction_l/accel	/jointset/hip_l/hip_rotation_l/accel	/jointset/back/lumbar_extension/accel	/jointset/patellofemoral_l/patellar_flexion_l/accel	/jointset/knee_l/knee_flexion_l/accel	/jointset/knee_l/knee_adduction_l/accel	/jointset/knee_l/knee_rotation_l/accel	/jointset/ankle_l/ankle_angle_l/accel	/jointset/subtalar_l/subtalar_angle_l/accel	gamma_cid13_p0	gamma_cid13_p1	gamma_cid13_p2	gamma_cid13_p3	gamma_cid13_p4	gamma_cid13_p5	gamma_cid14_p0
0	-0.03682197709079849	0.05667725777777655	0.9203416142590718	0.3085811930696054	-0.2956401605857207	-0.3016030640303174	-0.3879500408040475	0.2499276582272674	0.249927658227084	-0.1745326731142416	-0.1745287834853388	-0.0008036543073733089	0.0004378765422959094	0	0	0	0	0	0	0	0	0	0	0	0	0	0.07204189831348648	-0.05654624476442039	-0.02712127855832333	-0.3015388801725239	0.3148601387501156	-0.03253677175366517	0.02079517644258667	56.56359336458032	2.47049988810668	1.157995445182961	-38.86849897692902	-645.6539319552704	-68.72931873009597	-23.19689665547422	0.4923680871225911	-0.6452621120662316	-0.5284677403117098	4.991242747216381	-0.6878693586667159	2.804688092579501	-6.074868953960942	8.005952693418063	8.005952693417193	1.162715234991598	-0.02491343891876062	3.060203780386038	0.3110942841635738	-2.057280379040757e-08	1.287358060839e-07	4.976699279368663e-08	2.602399765905094e-08	8.266449474272869e-09	-2.078518338307828e-09	4.184865414069094e-09
0.01	-0.03679476846968126	0.05664390507993607	0.9203157243459976	0.308824665709961	-0.2956745595379252	-0.3014622298201886	-0.3882533856820038	0.2503201108715543	0.2503201108715254	-0.1744773922875826	-0.1745271576393867	-0.0006555686723018249	0.0004517147028650612	0.005504629254583117	-0.006790729651911818	-0.005170819115903862	0.04858034279262454	-0.006844146568353298	0.02801906589012143	-0.06041704771801316	0.07815116018026862	0.07815116018026365	0.01100884906890278	0.00029706550873374	0.0292962262931653	0.002695118595603233	0.0601697899647647	-0.07204759032110945	-0.02426373773637274	-0.2813715392465294	0.2769915310300878	-0.005527173942429474	0.0287195078505464	45.30626872200207	-7.314172391696085	2.74704341709584	-31.36781427566526	-646.7503505086531	-88.42844239346036	-23.20133648219216	0.5889422867143712	-0.7140017100066145	-0.5103128193372489	4.774298042533213	-0.6773674863648578	2.778348416469067	-5.987333492289489	7.668791543059262	7.668791543058985	1.062899325834876	0.05280510749175143	2.816197469481203	0.2378178261198402	-3.144317537417757e-08	1.351908761438977e-07	1.015585836579041e-07	3.214832326525341e-08	-3.937943884223695e-08	-4.914599753259978e-08	1.130709030974271e-09
0.02	-0.03671062716773956	0.05653904042191583	0.9202383414773465	0.3095505153776142	-0.2957763359918799	-0.3010456384352891	-0.3891533431994704	0.2514838938902925	0.2514838938903287	-0.1743134370532772	-0.1745234034254531	-0.000224147691158465	0.0004903234851612382	0.01138653619331598	-0.01430239203595058	-0.01029859111539378	0.09647540547513829	-0.01347550035447621	0.05515143494983893	-0.1193225278981637	0.1542660748696845	0.1542660748696824	0.0217348814576093	0.0004256734863019072	0.05666706921427307	0.004954124345630206	0.04829768161612769	-0.08754893587801724	-0.02140619691507204	-0.2612041983203863	0.2391229233100449	0.02148242386858268	0.03664383925863831	34.11079027051264	-17.11193764456485	4.340766246093497	-24.0539785797787	-646.9849454591531	-108.0534649948441	-23.21445972743271	0.5678236239567764	-0.7894486584953649	-0.5198583170289989	4.854186725194721	-0.6453108022206986	2.627348726497084	-5.772555446385858	7.598703595248514	7.598703595249206	1.106151898952685	-0.05860494515392783	2.675127105970409	0.2238717150468527	-4.231354695794757e-08	1.416459462038953e-07	1.533501745221215e-07	3.827264887145588e-08	-8.702532715874675e-08	-9.621347672689174e-08	-1.923447352120552e-09
0.03	-0.03656685809060164	0.05635796074301814	0.9201099621639772	0.3107499476865687	-0.2959432626816422	-0.3003620564087883	-0.3906327606364847	0.2533986643702583	0.2533986643701235	-0.1740436349894476	-0.174518916202462	0.0004745948889832715	0.0005505581770023253	0.0173367474858007	-0.02178277526083918	-0.01536095965250822	0.1430730571475869	-0.01987653820872351	0.08143068626219019	-0.1761212716917836	0.2283348967688217	0.2283348967688319	0.03214965169914268	0.0004745634958128286	0.08307625634072706	0.007126411673999807	0.04545076796034697	-0.07823315150091247	-0.0213893323890626	-0.2613551186310741	0.2435931898914465	0.01348504841825869	0.04006053554122791	35.1767173720612	-13.88831252569569	3.898791954253244	-25.5587637043471	-648.8157925414281	-100.8195310602593	-23.23580883216951	0.6040348896625941	-0.7077102129431941	-0.4969969339075571	4.511847014355824	-0.6325526974068312	2.608055205854195	-5.567580666699779	7.258003234254486	7.258003234255606	0.9977998936098196	0.03707578842975526	2.623037364564557	0.2189069202143154	-6.266502295472061e-08	8.683297984626265e-08	2.129547631563289e-07	5.113292479992974e-08	-1.569326193429188e-07	-1.533271429633644e-07	-1.390126031549699e-08
0.04	-0.03636450389913079	0.05610600182016977	0.9199314450028689	0.3124052150374442	-0.2961732102340315	-0.2994197134947454	-0.3926669748756273	0.256043529418562	0.256043529418592	-0.1736719531619552	-0.1745138521163823	0.001437273910104249	0.0006335156778221889	0.02310355908948524	-0.028478240826085	-0.02032616066316296	0.1876424138633452	-0.02607967287828762	0.106903612464535	-0.2302818883188394	0.300284988548319	0.3002849885483416	0.04211083421499708	0.000541046082357025	0.1094543574104274	0.009498686141671838	0.04260385430545066	-0.06891736712350724	-0.02137246786234647	-0.261506038941182	0.2480634564731984	0.005487672968354809	0.04347723182414558	36.30132069362281	-10.67037375569597	3.452484669446804	-27.23835365469476	-649.8337289493618	-93.50001339074409	-23.26472726281245	0.5311436862008481	-0.6324651265704357	-0.5004248117371157	4.448527733857157	-0.6057301652838405	2.466083704494924	-5.244930013070553	7.174957571321374	7.174957571322051	1.015434353817619	-0.05508642974839045	2.668909894615736	0.263869142906186	-8.321198564042156e-08	3.075675500579217e-08	2.727204445280619e-07	6.413208630205867e-08	-2.272989095449809e-07	-2.106479470769954e-07	-2.60630661980545e-08
0.05	-0.03610519590825572	0.05579001439274986	0.9197035593272224	0.3144971982118274	-0.2964641820252132	-0.2982275388660736	-0.3952304488138878	0.2593975376579129	0.2593975376579079	-0.1732029228154749	-0.1745089513350275	0.002662278437975037	0.0007407712184297976	0.02875877363049963	-0.03468827556504529	-0.0252516588328605	0.2305167377703834	-0.0320688662547809	0.1313970392681363	-0.2820699110028671	0.370164624628546	0.3701646246285571	0.05162865402036047	0.0004453397450338676	0.1354106490268654	0.01195347028871481	0.03624896213117729	-0.06742766100029413	-0.02026157219762553	-0.2544636520447538	0.2368822379444645	0.0092759581626706	0.04865532903402782	32.81710757455559	-11.76751021476819	3.698153622954111	-25.30934056725884	-650.5870914642219	-95.06456491646189	-23.30043160187957	0.5828174514000151	-0.6106143618776431	-0.4887610031396706	4.171253975900221	-0.5886877001589005	2.420791621274003	-5.094290139543666	6.841666734862954	6.841666734860714	0.9100042524403034	0.0141671681550565	2.538600977704906	0.2364045640870692	-9.428835820071464e-08	-4.477113474203697e-09	3.085816198208657e-07	7.070060799776669e-08	-2.728857316500713e-07	-2.47049168557508e-07	-3.277103529372662e-08
0.06	-0.03578931434943809	0.05541285827506755	0.9194263889331707	0.3170107984765534	-0.2968136805054183	-0.2967944660787618	-0.3983015133277094	0.2634397822797912	0.26343978227981	-0.1726407045792187	-0.1745048116361036	0.004142768318516506	0.0008725989032035358	0.03441827270598307	-0.0407119788785646	-0.0301831043441524	0.2719658319482982	-0.03778501068437468	0.1550832441909934	-0.3318000034253612	0.4379322650483763	0.4379322650483722	0.06074841216754618	0.0003888295628777467	0.1605514279451589	0.01441311497510706	0.02989406995706275	-0.06593795487703732	-0.019150676533047	-0.247421265148156	0.2257010194158212	0.0130642433570643	0.05383342624394839	29.38622986933753	-12.87528138127552	3.946999096924593	-23.55096172325325	-650.6058299368539	-96.56629242524554	-23.34202388844061	0.5320005930986061	-0.5951988414857058	-0.5016142800560384	4.163481788032966	-0.5511203759036527	2.304639328345705	-4.833343960761471	6.752558439242747	6.752558439242648	0.9358220221829001	-0.04724719871555168	2.505807354983073	0.2648412507750296	-1.049659690715169e-07	-3.883340905481112e-08	3.434362895945567e-07	7.699836591215171e-08	-3.174292077300261e-07	-2.825695655060997e-07	-3.924936915626672e-08
